<svg width="232" height="75" viewBox="0 0 232 75" fill="none" xmlns="http://www.w3.org/2000/svg">
<path d="M4.08447 52.5098C3.69385 52.1191 3.40088 51.6553 3.20557 51.1182C3.05908 50.5811 2.66846 50.1416 2.03369 49.7998C1.93604 49.0674 1.78955 48.2373 1.59424 47.3096C1.44775 46.333 1.27686 45.3564 1.08154 44.3799C0.935059 43.3545 0.812988 42.3535 0.715332 41.377C0.666504 40.3516 0.715332 39.4238 0.861816 38.5938C0.959473 38.1543 1.10596 37.7393 1.30127 37.3486C1.54541 36.958 1.76514 36.5918 1.96045 36.25C2.20459 35.8594 2.37549 35.4688 2.47314 35.0781C2.61963 34.6875 2.64404 34.2969 2.54639 33.9062C2.83936 33.8574 3.01025 33.7109 3.05908 33.4668C3.15674 33.1738 3.40088 33.0762 3.7915 33.1738C4.1333 32.0996 4.49951 31.0986 4.89014 30.1709C5.28076 29.2432 5.6958 28.3398 6.13525 27.4609C6.57471 26.582 7.01416 25.7031 7.45361 24.8242C7.94189 23.8965 8.38135 22.8711 8.77197 21.748C7.94189 20.9668 7.33154 20.1367 6.94092 19.2578C6.59912 18.3301 6.33057 17.4023 6.13525 16.4746C5.93994 15.5469 5.79346 14.6191 5.6958 13.6914C5.59814 12.7148 5.40283 11.7383 5.10986 10.7617C5.6958 9.88281 6.40381 9.1748 7.23389 8.6377C8.06396 8.05176 8.96729 7.58789 9.94385 7.24609C10.9692 6.85547 12.0679 6.5625 13.2397 6.36719C14.4116 6.12305 15.6567 5.85449 16.9751 5.56152C19.3188 4.8291 21.4185 4.26758 23.2739 3.87695C25.1294 3.4375 26.936 3.0957 28.6938 2.85156C30.4517 2.55859 32.2827 2.31445 34.187 2.11914C36.0913 1.875 38.2886 1.5332 40.7788 1.09375C40.8276 1.24023 40.9009 1.31348 40.9985 1.31348C41.145 1.31348 41.3159 1.31348 41.5112 1.31348C41.6577 1.65527 41.9263 1.82617 42.3169 1.82617C42.3169 1.67969 42.2925 1.55762 42.2437 1.45996C42.2437 1.31348 42.2437 1.19141 42.2437 1.09375C42.3413 1.09375 42.4634 1.11816 42.6099 1.16699C42.8052 1.21582 42.9517 1.26465 43.0493 1.31348C43.1958 1.3623 43.3179 1.3623 43.4155 1.31348C43.5132 1.21582 43.5376 1.04492 43.4888 0.800781C44.0747 1.82617 44.8315 2.68066 45.7593 3.36426C46.687 3.99902 47.7124 4.56055 48.8354 5.04883C48.8843 5.48828 48.8843 5.80566 48.8354 6.00098C48.8354 6.19629 48.811 6.3916 48.7622 6.58691C48.7134 6.7334 48.689 6.92871 48.689 7.17285C48.689 7.36816 48.7378 7.66113 48.8354 8.05176C48.0542 9.37012 47.1509 10.3955 46.1255 11.1279C45.1489 11.8604 44.0991 12.4219 42.9761 12.8125C41.853 13.2031 40.6567 13.4961 39.3872 13.6914C38.1665 13.8867 36.897 14.1064 35.5786 14.3506C34.3091 14.5459 33.0151 14.8389 31.6968 15.2295C30.3784 15.6201 29.0845 16.2061 27.8149 16.9873C27.4243 16.8408 27.0581 16.792 26.7163 16.8408C26.4233 16.8408 26.106 16.8896 25.7642 16.9873C25.4224 17.085 25.0317 17.1826 24.5923 17.2803C24.2017 17.3779 23.7134 17.3779 23.1274 17.2803C22.7368 17.6221 22.2729 17.8662 21.7358 18.0127C21.2476 18.1592 20.7349 18.3057 20.1978 18.4521C20.4419 18.9893 20.5396 19.5264 20.4907 20.0635C20.4907 20.6006 20.564 21.0645 20.7104 21.4551C22.7612 21.6504 25.0317 21.6504 27.522 21.4551C30.0122 21.2109 32.4536 21.04 34.8462 20.9424C34.895 21.1865 34.8706 21.3574 34.7729 21.4551C34.6753 21.5527 34.6265 21.7236 34.6265 21.9678C35.0659 22.2607 35.481 22.627 35.8716 23.0664C36.2622 23.5059 36.6528 23.9453 37.0435 24.3848C37.4829 24.7754 37.9224 25.1172 38.3618 25.4102C38.8013 25.6543 39.314 25.752 39.8999 25.7031C40.144 26.1914 40.3149 26.7041 40.4126 27.2412C40.5103 27.7783 40.437 28.3398 40.1929 28.9258C39.2163 29.5605 38.2642 30.2197 37.3364 30.9033C36.4087 31.5381 35.4321 32.124 34.4067 32.6611C33.4302 33.1982 32.356 33.6377 31.1841 33.9795C30.0122 34.3213 28.7427 34.4678 27.3755 34.4189C27.1313 34.4189 26.9116 34.4189 26.7163 34.4189C26.5698 34.4189 26.3745 34.3213 26.1304 34.126C25.6421 34.3701 24.9829 34.4678 24.1528 34.4189C23.3716 34.3213 22.7124 34.3945 22.1753 34.6387C21.4917 34.3945 20.686 34.2725 19.7583 34.2725C18.8794 34.2725 18.0981 34.1504 17.4146 33.9062C16.5356 35.1758 15.7056 36.5186 14.9243 37.9346C14.1431 39.3018 13.4595 40.7666 12.8735 42.3291C14.8755 42.6221 16.5356 42.7441 17.854 42.6953C19.1724 42.6465 20.4175 42.5488 21.5894 42.4023C22.7612 42.2559 23.9575 42.1094 25.1782 41.9629C26.4478 41.8164 27.9858 41.7676 29.7925 41.8164C31.0132 41.2305 32.4048 40.8398 33.9673 40.6445C35.5786 40.4004 37.0679 40.0586 38.4351 39.6191C38.9233 39.7656 39.3384 40.0586 39.6802 40.498C40.022 40.8887 40.3394 41.3037 40.6323 41.7432C40.9741 42.1338 41.3159 42.4756 41.6577 42.7686C41.9995 43.0615 42.439 43.1592 42.9761 43.0615C43.2202 43.3057 43.3667 43.5986 43.4155 43.9404C43.5132 44.2822 43.5864 44.5996 43.6353 44.8926C43.7329 45.1855 43.855 45.4297 44.0015 45.625C44.1479 45.7715 44.4165 45.8203 44.8071 45.7715C43.8794 47.6758 42.8296 49.1406 41.6577 50.166C40.5347 51.1914 39.2407 51.9971 37.7759 52.583C36.3599 53.1201 34.7485 53.5352 32.9419 53.8281C31.1841 54.0723 29.2065 54.3896 27.0093 54.7803C26.4722 54.8779 26.0083 54.8779 25.6177 54.7803C25.2759 54.6338 24.9097 54.5605 24.519 54.5605C23.1519 54.8047 21.5161 55.0488 19.6118 55.293C17.7563 55.5371 15.8765 55.6348 13.9722 55.5859C12.0679 55.5371 10.2368 55.293 8.479 54.8535C6.72119 54.4141 5.25635 53.6328 4.08447 52.5098ZM85.0903 33.1738C85.8228 33.2715 86.3354 33.4424 86.6284 33.6865C86.9702 33.9307 87.1899 34.248 87.2876 34.6387C87.4341 34.9805 87.4829 35.3711 87.4341 35.8105C87.3853 36.25 87.3608 36.6895 87.3608 37.1289C86.1401 37.959 84.4556 38.5449 82.3071 38.8867C80.1587 39.1797 77.9126 39.3994 75.5688 39.5459C73.2251 39.6436 70.9546 39.6924 68.7573 39.6924C66.5601 39.6924 64.8267 39.7656 63.5571 39.9121C60.9204 40.2051 58.8696 40.498 57.4048 40.791C55.9888 41.0352 55.0122 41.2793 54.4751 41.5234C53.5474 41.4746 52.8149 41.3037 52.2778 41.0107C51.7407 40.7178 51.3013 40.376 50.9595 39.9854C50.6177 39.5459 50.3247 39.0576 50.0806 38.5205C49.8364 37.9834 49.5435 37.4219 49.2017 36.8359C49.397 36.4453 49.4458 35.8838 49.3481 35.1514C49.2505 34.4189 48.9575 33.8574 48.4692 33.4668C48.8599 33.418 49.1528 33.1494 49.3481 32.6611C49.5435 32.124 49.5435 31.7334 49.3481 31.4893C50.1294 31.2939 50.9595 31.1719 51.8384 31.123C52.7661 31.0254 53.6694 30.9521 54.5483 30.9033C55.4272 30.8545 56.2573 30.7812 57.0386 30.6836C57.8687 30.5371 58.5767 30.3174 59.1626 30.0244C61.604 29.9756 64.1187 29.9023 66.7065 29.8047C69.3433 29.707 71.8091 29.6094 74.104 29.5117C74.9341 29.7559 75.9106 29.9023 77.0337 29.9512C78.1567 29.9512 79.2554 30.0244 80.3296 30.1709C81.4038 30.2686 82.3804 30.5371 83.2593 30.9766C84.1382 31.416 84.7485 32.1484 85.0903 33.1738Z" fill="#032E2A" fill-opacity="0.77"/>
<path d="M96.2964 47.4927C103.45 46.9556 108.931 46.1377 112.739 45.0391C112.91 43.916 112.996 42.6465 112.996 41.2305C112.996 39.79 112.959 38.4595 112.886 37.2388L99.8853 32.5146C99.0063 32.1973 98.3472 31.6235 97.9077 30.7935C97.4683 29.939 97.1387 28.8281 96.9189 27.4609C96.4307 24.458 96.1865 22.1631 96.1865 20.5762C96.1865 18.0615 96.2476 16.2427 96.3696 15.1196C96.5649 13.1177 97.8467 11.7627 100.215 11.0547C105.757 9.05273 112.275 7.40479 119.771 6.11084L122.004 14.9365L117.317 15.5957C112.678 16.2793 108.821 17.0117 105.745 17.793C105.647 18.4277 105.598 19.2578 105.598 20.2832C105.598 22.3828 105.647 24.0308 105.745 25.2271L119.258 31.1597C120.747 31.7944 121.748 32.9053 122.261 34.4922C122.407 34.9561 122.48 35.2856 122.48 35.481C122.48 35.6763 122.456 36.1035 122.407 36.7627C122.383 37.3975 122.334 38.252 122.261 39.3262C122.065 42.207 121.821 44.6851 121.528 46.7603C121.235 48.811 120.515 50.2148 119.368 50.9717C118.245 51.7041 116.865 52.3633 115.229 52.9492C113.618 53.5107 111.873 54.0234 109.993 54.4873C106.941 55.1953 102.9 55.9155 97.8711 56.6479L96.2964 47.4927ZM149.36 34.6753C149.36 31.1841 149.214 28.6328 148.921 27.0215H146.357C144.893 27.0215 143.757 27.168 142.952 27.4609C141.658 27.9004 140.62 28.3032 139.839 28.6694L139.29 54.5605L131.343 55C131.27 45.6006 131.135 38.4961 130.94 33.6865C130.647 27.2168 130.5 21.626 130.5 16.9141C130.5 13.7402 130.562 9.04053 130.684 2.81494L139.436 0.983887L139.839 24.165L145.662 19.0015H153.792C154.695 19.0015 155.525 19.3433 156.282 20.0269C157.625 21.272 158.32 22.3706 158.369 23.3228C158.418 24.2749 158.442 25.2393 158.442 26.2158V29.0723C158.442 32.3438 158.394 34.6875 158.296 36.1035L157.161 56.2817L149.031 57.6367L149.36 34.6753ZM176.716 33.3203C176.716 39.2041 177.021 44.3066 177.632 48.6279L184.846 48.2617C186.165 43.0371 186.824 37.9346 186.824 32.9541C186.824 30.9521 186.689 29.1699 186.421 27.6074C184.956 26.875 179.78 26.5088 170.894 26.5088H169.026C168.513 26.5088 167.952 26.5332 167.341 26.582L168.916 18.0859C169.331 18.0615 169.709 18.0371 170.051 18.0127C170.417 17.9639 170.784 17.9395 171.15 17.9395L172.249 17.8662C172.615 17.8662 173.64 17.8662 175.325 17.8662C180.159 17.8662 185.457 18.5132 191.218 19.8071C193.049 20.271 194.172 21.0889 194.587 22.2607C195.222 24.0674 195.54 27.0093 195.54 31.0864C195.54 38.5327 194.404 45.7349 192.134 52.6929C191.938 53.3276 191.707 53.8647 191.438 54.3042C191.194 54.7437 190.754 55.0244 190.12 55.1465C189.485 55.293 188.74 55.4272 187.886 55.5493C187.031 55.6714 186.189 55.7812 185.359 55.8789C183.552 56.0498 182.307 56.1353 181.624 56.1353C180.94 56.1353 180.208 56.123 179.426 56.0986C178.645 56.0986 177.791 56.0742 176.863 56.0254C174.421 55.9033 172.773 55.6836 171.919 55.3662C171.064 55.0732 170.479 54.5605 170.161 53.8281C169.868 53.0957 169.575 51.9238 169.282 50.3125C168.599 46.5527 168.257 42.2681 168.257 37.4585C168.257 35.6274 168.306 33.8086 168.403 32.002L176.716 30.354V33.3203ZM212.935 73.6035L205.208 74.1162L204.915 32.1118L213.447 30.4639L213.813 48.4814L220.479 47.1997C221.846 41.6089 222.529 36.8604 222.529 32.9541C222.529 30.708 222.407 28.9014 222.163 27.5342C220.918 26.8506 215.925 26.5088 207.185 26.5088H204.988C204.28 26.5088 203.608 26.5332 202.974 26.582L204.585 18.0859C206.172 17.9639 207.625 17.9028 208.943 17.9028C210.286 17.9028 211.824 17.9517 213.557 18.0493C215.315 18.147 217.073 18.2812 218.831 18.4521C225.544 19.1602 229.353 20.1367 230.256 21.3818C231.16 22.6514 231.611 25.3979 231.611 29.6216C231.611 36.9702 230.415 44.3311 228.022 51.7041C227.827 52.3145 227.595 52.8516 227.327 53.3154C227.083 53.7549 226.68 54.0112 226.118 54.0845L213.594 55.7324L212.935 73.6035Z" fill="#31312F"/>
</svg>
